<svg width="310" height="310" viewBox="0 0 310 310" fill="none" xmlns="http://www.w3.org/2000/svg">
<g clip-path="url(#clip0_1_2)">
<path d="M31.5 248L35.5 253.5L110.5 183L105.5 166.5L115.5 162.5L121 160.5L121.5 158L121 156.5L77.5 104V100L105.5 76L109 77L165.5 142.5L209 125.5L231.5 20.5L220 14.5L207.5 9.5L198.5 6.5L191 4.5L179.5 2L165.5 0.5L152.5 0L141 0.5L130 2L115 5L106.5 7.5L88 15L75 22L67 27L58 34L51 40L37.5 54L31 61L23 73L17 84L10.5 98.5L5 114.5L1 135L0 155L0.5 165.5L2 179.5L5 193.5L8.5 204.5L12.5 215.5L17 225L23 235.5L31.5 248Z" fill="#4C4C4C" stroke="black"/>
<path d="M291 81.5L286.5 74L220.5 134L218 136.5L216.5 138.5V141.5L217.5 143.5L220 150.5L222.5 157L224 160L224.5 163L224 165L223 166L132.5 201L122 205L120 204L119 203L118 202L117 202.5L116.5 203.5L116 204.5L115.5 206.5L101 272.5L98 286L95.5 297.5L114.5 304L125.5 306.5L134.5 308.5L151 309.5L174.5 308.5L196 304L219.5 295.5L232 289L249.5 277L272.5 255L284 239.5L292.5 225L302 203L307.5 181L309.5 157L308.5 138.5L306 123L303.5 112.5L301 105L299 99.5L291 81.5Z" fill="#4C4C4C" stroke="black"/>
</g>
<defs>
<clipPath id="clip0_1_2">
<rect width="310" height="310" fill="white"/>
</clipPath>
</defs>
</svg>
